<svg
      width="60"
      height="60"
      viewBox="0 0 60 60"
      fill="none"
      xmlns="http://www.w3.org/2000/svg"
    >
      <path
        d="M60 30C60 24.0666 58.2405 18.2664 54.9441 13.3329C51.6476 8.39942 46.9623 4.55424 41.4805 2.28361C35.9987 0.012985 29.9667 -0.581115 24.1473 0.576442C18.3279 1.734 12.9824 4.59122 8.7868 8.7868C4.59122 12.9824 1.734 18.3279 0.576442 24.1473C-0.581115 29.9667 0.0129851 35.9987 2.28361 41.4805C4.55424 46.9623 8.39942 51.6476 13.3329 54.9441C18.2664 58.2405 24.0666 60 30 60V30H60Z"
        fill="white"
      />
      <path
        d="M46 32C43.2311 32 40.5243 32.8211 38.222 34.3594C35.9197 35.8978 34.1253 38.0843 33.0657 40.6424C32.0061 43.2006 31.7288 46.0155 32.269 48.7313C32.8092 51.447 34.1426 53.9416 36.1005 55.8995C38.0584 57.8574 40.553 59.1908 43.2687 59.731C45.9845 60.2712 48.7994 59.9939 51.3576 58.9343C53.9157 57.8747 56.1022 56.0803 57.6406 53.778C59.1789 51.4757 60 48.7689 60 46H46V32Z"
        fill="white"
      />
    </svg>